<svg xmlns="http://www.w3.org/2000/svg" width="20" height="20" viewBox="0 0 13 13">
    <path fill="#00b0df" fill-rule="nonzero" stroke="#00b0df" d="M12.188 12.008L8.93 8.749a.125.125 0 0 0-.037-.024 4.573 4.573 0 0 0-.082-6.374 4.538 4.538 0 0 0-3.23-1.339c-1.22 0-2.368.476-3.23 1.339a4.537 4.537 0 0 0-1.339 3.23c0 1.22.476 2.367 1.339 3.23a4.538 4.538 0 0 0 3.23 1.338c1.18 0 2.292-.445 3.144-1.256a.128.128 0 0 0 .024.037l3.259 3.258a.127.127 0 0 0 .18 0c.05-.05.05-.13 0-.18zM5.581 9.894a4.285 4.285 0 0 1-3.05-1.263 4.284 4.284 0 0 1-1.263-3.05c0-1.152.448-2.235 1.263-3.05a4.285 4.285 0 0 1 3.05-1.263c1.152 0 2.235.448 3.05 1.263a4.318 4.318 0 0 1 0 6.1 4.285 4.285 0 0 1-3.05 1.263z"/>
</svg>
